<svg xmlns="http://www.w3.org/2000/svg" viewBox="0 0.0 4550 881.8897705078125" width="516" height="100"><g fill="currentColor" transform="scale(1,-1) translate(0,-881.8897705078125)"><path d="M14.0 0.0H289.5905456542969V303.1496124267578H895.8897552490234V578.7401580810547H289.5905456542969V606.2992248535156H895.8897552490234V881.8897705078125H14.0Z" transform="translate(0, 0)"/><path d="M14.0 881.8897552490234V0.0H895.8897552490234V881.8897552490234ZM620.2992095947266 606.2992095947266V275.5905456542969H289.5905456542969V606.2992095947266Z" transform="translate(910, 0)"/><path d="M14.0 881.8897552490234V0.0H289.5905456542969V303.1496124267578H317.1496124267578V0.0H895.8897705078125V275.5905456542969H592.7401580810547V303.1496124267578H895.8897705078125V881.8897705078125ZM620.2992095947266 578.7401580810547H289.5905456542969V606.2992248535156H620.2992095947266Z" transform="translate(1820, 0)"/><path d="M14.0 881.8897552490234V0.0H289.5905456542969V606.2992095947266H317.1496124267578V0.0H592.7401580810547V606.2992095947266H620.2992248535156V0.0H895.8897705078125V881.8897552490234Z" transform="translate(2730, 0)"/><path d="M14.0 881.8897552490234V0.0H289.5905456542969V303.1496124267578H620.2992095947266V0.0H895.8897552490234V881.8897552490234ZM620.2992095947266 578.7401580810547H289.5905456542969V606.2992248535156H620.2992095947266Z" transform="translate(3640, 0)"/></g></svg>