<svg xmlns="http://www.w3.org/2000/svg" viewBox="0 -1.52587890625e-05 4253 548.4900207519531" width="775" height="100"><g fill="currentColor" transform="scale(1,-1) translate(0,-548.489990234375)"><path d="M748.1900024414062 397.3999938964844V548.4399871826172H30.0V-1.52587890625e-05H225.00999450683594V182.37998962402344H574.0800018310547V322.5399932861328H225.00999450683594V397.3999938964844Z" transform="translate(0, 0)"/><path d="M539.0 548.4900054931641H282.24000549316406C130.77999877929688 548.4900054931641 8.0 425.7100067138672 8.0 274.24000549316406C8.0 122.77999877929688 130.77999877929688 0.0 282.24000549316406 0.0H539.0C690.4499969482422 0.0 813.239990234375 122.77999877929688 813.239990234375 274.24000549316406C813.239990234375 425.7100067138672 690.4499969482422 548.4900054931641 539.0 548.4900054931641ZM508.52000427246094 164.54000854492188H312.7100067138672C252.1300048828125 164.54000854492188 203.010009765625 213.66000366210938 203.010009765625 274.24000549316406C203.010009765625 334.82000732421875 252.12001037597656 383.94000244140625 312.7100067138672 383.94000244140625H508.52000427246094C569.1200103759766 383.94000244140625 618.2200164794922 334.82000732421875 618.2200164794922 274.24000549316406C618.2200164794922 213.66000366210938 569.1200103759766 164.54000854492188 508.52000427246094 164.54000854492188Z" transform="translate(749, 0)"/><path d="M792.0399932861328 349.17999267578125C792.0399932861328 459.25 702.8099975585938 548.4900054931641 592.739990234375 548.4900054931641H29.999984741210938V0.0H225.01998901367188V149.88999938964844H430.00999450683594L564.3899993896484 0.0H792.0399932861328L654.9799957275391 159.92999267578125C734.5500030517578 186.08999633789062 792.0400085449219 260.8699951171875 792.0400085449219 349.1699981689453ZM544.6500091552734 290.0399932861328H225.02000427246094V394.8299865722656H544.6500091552734C573.5800018310547 394.8299865722656 597.0400085449219 371.37998962402344 597.0400085449219 342.42999267578125C597.0400085449219 313.50999450683594 573.5800018310547 290.0399932861328 544.6500091552734 290.0399932861328Z" transform="translate(1571, 0)"/><path d="M225.02000427246094 548.4600067138672 362.12001037597656 0.0200042724609375H557.1300048828125L420.02000427246094 548.4600067138672ZM557.1300048828125 0.0200042724609375H752.1399993896484L889.2299957275391 548.4600067138672H694.239990234375ZM29.999984741210938 548.4900054931641V0.0H225.01998901367188V548.4900054931641ZM1084.249984741211 0.0V548.4900054931641H889.22998046875V0.0Z" transform="translate(2374, 0)"/><path d="M576.5200042724609 548.4400024414062H381.510009765625L480.9200134277344 263.8000030517578H282.1100158691406L381.510009765625 548.4400024414062H186.52000427246094L-5.0 0.0H190.00999450683594L228.0 108.82000732421875H535.0399932861328L573.0299987792969 0.0H768.0299987792969Z" transform="translate(3489, 0)"/></g></svg>