<svg xmlns="http://www.w3.org/2000/svg" viewBox="0 -3.0517578125e-05 3701 548.4350891113281" width="675" height="100"><g fill="currentColor" transform="scale(1,-1) translate(0,-548.4350280761719)"><path d="M255.643798828125 388.6926574707031H574.6933288574219V548.43505859375H202.1061553955078C105.91250610351562 548.43505859375 28.0 470.5225524902344 28.0 374.3288879394531V0.0006561279296875H222.99888610839844V194.45545959472656H514.8443298339844V334.6109161376953H222.99888610839844V356.0477294921875C222.99888610839844 374.1112365722656 237.5802764892578 388.692626953125 255.64378356933594 388.692626953125Z" transform="translate(0, 0)"/><path d="M493.9062957763672 474.7663879394531H247.3828582763672C116.28091430664062 474.7663879394531 10.0 368.48545837402344 10.0 237.38352966308594C10.0 106.28158569335938 116.28092956542969 0.00067138671875 247.3828582763672 0.00067138671875H493.9062957763672C625.0082397460938 0.00067138671875 731.2891540527344 106.28160095214844 731.2891540527344 237.38352966308594C731.2891540527344 368.4854736328125 625.0082244873047 474.7663879394531 493.9062957763672 474.7663879394531ZM451.2502899169922 142.76771545410156H290.04974365234375C237.07794189453125 142.76771545410156 194.1281280517578 185.717529296875 194.1281280517578 238.6893310546875C194.1281280517578 291.6611328125 237.07794189453125 334.61094665527344 290.04974365234375 334.61094665527344H451.2502899169922C504.2220916748047 334.61094665527344 547.1719055175781 291.6611328125 547.1719055175781 238.6893310546875C547.1719055175781 185.717529296875 504.2220916748047 142.76771545410156 451.2502899169922 142.76771545410156Z" transform="translate(576, 0)"/><path d="M248.50999450683594 474.77000427246094C122.30999755859375 474.77000427246094 20.0 372.4600067138672 20.0 246.25V0.0H215.11000061035156V236.67999267578125C215.11000061035156 290.7699890136719 258.9499969482422 334.6099853515625 313.0399932861328 334.6099853515625H564.9299926757812V474.7699890136719Z" transform="translate(1318, 0)"/><path d="M839.6399993896484 474.77000427246094H684.8999938964844C632.4700012207031 474.77000427246094 584.3200073242188 456.9199981689453 545.760009765625 427.24000549316406C506.07000732421875 457.07000732421875 456.7300109863281 474.77000427246094 403.25001525878906 474.77000427246094H248.510009765625C122.31001281738281 474.77000427246094 20.000015258789062 372.4600067138672 20.000015258789062 246.25V0.0H215.11001586914062V236.67999267578125C215.11001586914062 290.7699890136719 258.95001220703125 334.6099853515625 313.0400085449219 334.6099853515625H360.6000061035156C413.0800018310547 334.6099853515625 455.55999755859375 292.4399871826172 456.38999938964844 240.26998901367188V-1.52587890625e-05H651.4900054931641V236.6799774169922C651.4900054931641 290.7699737548828 695.3500061035156 334.60997009277344 749.4300079345703 334.60997009277344H796.9800109863281C849.9700164794922 334.60997009277344 892.8500213623047 291.6299743652344 892.8500213623047 238.73997497558594V-3.0517578125e-05H1076.9700164794922V238.73997497558594C1076.3100128173828 369.20997619628906 970.3300170898438 474.7699737548828 839.6400146484375 474.7699737548828Z" transform="translate(1885, 0)"/><path d="M664.5599975585938 279.25999450683594 466.9499969482422 474.7699890136719H240.1699981689453L364.00999450683594 343.2099914550781L177.36000061035156 343.0299987792969C82.69000244140625 342.9499969482422 6.0 266.17999267578125 6.0 171.51998901367188C6.0 76.8599853515625 82.78999328613281 -1.52587890625e-05 177.51998901367188 -1.52587890625e-05H549.7599945068359C695.5899963378906 -1.52587890625e-05 768.2299957275391 176.6899871826172 664.5599975585938 279.25999450683594ZM468.36000061035156 140.1599884033203H235.1699981689453C210.41000366210938 140.1599884033203 190.3300018310547 160.22999572753906 190.3300018310547 184.989990234375C190.3300018310547 209.739990234375 210.41000366210938 229.8199920654297 235.1699981689453 229.8199920654297H468.36000061035156C493.1199951171875 229.8199920654297 513.1900024414062 209.739990234375 513.1900024414062 184.989990234375C513.1900024414062 160.22999572753906 493.1199951171875 140.1599884033203 468.36000061035156 140.1599884033203Z" transform="translate(2981, 0)"/></g></svg>