<svg xmlns="http://www.w3.org/2000/svg" viewBox="0 0.0 4550 881.8897552490234" width="516" height="100"><g fill="currentColor" transform="scale(1,-1) translate(0,-881.8897552490234)"><path d="M14.0 606.2992095947266H592.7401580810547V881.8897552490234H14.0ZM289.5905456542969 0.0V303.1496124267578H895.8897552490234V578.7401580810547H14.0V0.0Z" transform="translate(0, 0)"/><path d="M14.0 578.7401580810547V0.0H289.5905456542969V0.1860198974609375H620.2992095947266V0.0H895.8897552490234V578.7401580810547ZM289.5905456542969 275.7765655517578V303.14959716796875H620.2992095947266V275.7765655517578Z" transform="translate(910, 0)"/><path d="M895.8897552490234 578.7401580810547H14.0V0.0H289.5905456542969V303.1496124267578H895.8897552490234Z" transform="translate(1820, 0)"/><path d="M14.0 578.7401580810547V0.0H289.5905456542969V303.1496124267578H317.1496124267578V0.0H592.7401580810547V303.1496124267578H620.2992248535156V0.0H895.8897705078125V578.7401580810547Z" transform="translate(2730, 0)"/><path d="M14.0 578.7401580810547V0.0H592.7401580810547V275.5905456542969H289.5905456542969V303.1496124267578H620.2992095947266V0.0H895.8897552490234V578.7401580810547Z" transform="translate(3640, 0)"/></g></svg>