<svg xmlns="http://www.w3.org/2000/svg" viewBox="0 0 480 300" width="480" height="300">
<circle cx="15" cy="15" r="1.5" fill="#f0eee8" opacity=".15"/><circle cx="45" cy="15" r="1.5" fill="#f0eee8" opacity=".15"/><circle cx="75" cy="15" r="1.5" fill="#f0eee8" opacity=".15"/><circle cx="105" cy="15" r="1.5" fill="#f0eee8" opacity=".15"/><circle cx="135" cy="15" r="1.5" fill="#f0eee8" opacity=".15"/><circle cx="165" cy="15" r="1.5" fill="#f0eee8" opacity=".15"/><circle cx="195" cy="15" r="1.5" fill="#f0eee8" opacity=".15"/><circle cx="225" cy="15" r="1.5" fill="#f0eee8" opacity=".15"/><circle cx="255" cy="15" r="1.5" fill="#f0eee8" opacity=".15"/><circle cx="285" cy="15" r="1.5" fill="#f0eee8" opacity=".15"/><circle cx="315" cy="15" r="1.5" fill="#f0eee8" opacity=".15"/><circle cx="345" cy="15" r="1.5" fill="#f0eee8" opacity=".15"/><circle cx="375" cy="15" r="1.5" fill="#f0eee8" opacity=".15"/><circle cx="405" cy="15" r="1.5" fill="#f0eee8" opacity=".15"/><circle cx="435" cy="15" r="1.5" fill="#f0eee8" opacity=".15"/><circle cx="465" cy="15" r="1.5" fill="#f0eee8" opacity=".15"/><circle cx="15" cy="45" r="1.5" fill="#f0eee8" opacity=".15"/><circle cx="45" cy="45" r="1.5" fill="#f0eee8" opacity=".15"/><circle cx="75" cy="45" r="1.5" fill="#f0eee8" opacity=".15"/><circle cx="105" cy="45" r="1.5" fill="#f0eee8" opacity=".15"/><circle cx="135" cy="45" r="1.5" fill="#f0eee8" opacity=".15"/><circle cx="165" cy="45" r="1.5" fill="#f0eee8" opacity=".15"/><circle cx="195" cy="45" r="1.5" fill="#f0eee8" opacity=".15"/><circle cx="225" cy="45" r="1.5" fill="#f0eee8" opacity=".15"/><circle cx="255" cy="45" r="1.5" fill="#f0eee8" opacity=".15"/><circle cx="285" cy="45" r="1.5" fill="#f0eee8" opacity=".15"/><circle cx="315" cy="45" r="1.5" fill="#f0eee8" opacity=".15"/><circle cx="345" cy="45" r="1.5" fill="#f0eee8" opacity=".15"/><circle cx="375" cy="45" r="1.5" fill="#f0eee8" opacity=".15"/><circle cx="405" cy="45" r="1.5" fill="#f0eee8" opacity=".15"/><circle cx="435" cy="45" r="1.5" fill="#f0eee8" opacity=".15"/><circle cx="465" cy="45" r="1.5" fill="#f0eee8" opacity=".15"/><circle cx="15" cy="75" r="1.5" fill="#f0eee8" opacity=".15"/><circle cx="45" cy="75" r="1.5" fill="#f0eee8" opacity=".15"/><circle cx="75" cy="75" r="1.5" fill="#f0eee8" opacity=".15"/><circle cx="105" cy="75" r="1.5" fill="#f0eee8" opacity=".15"/><circle cx="135" cy="75" r="1.5" fill="#f0eee8" opacity=".15"/><circle cx="165" cy="75" r="1.5" fill="#f0eee8" opacity=".15"/><circle cx="195" cy="75" r="1.5" fill="#f0eee8" opacity=".15"/><circle cx="225" cy="75" r="1.5" fill="#f0eee8" opacity=".15"/><circle cx="255" cy="75" r="1.5" fill="#f0eee8" opacity=".15"/><circle cx="285" cy="75" r="1.5" fill="#f0eee8" opacity=".15"/><circle cx="315" cy="75" r="1.5" fill="#f0eee8" opacity=".15"/><circle cx="345" cy="75" r="1.5" fill="#f0eee8" opacity=".15"/><circle cx="375" cy="75" r="1.5" fill="#f0eee8" opacity=".15"/><circle cx="405" cy="75" r="1.5" fill="#f0eee8" opacity=".15"/><circle cx="435" cy="75" r="1.5" fill="#f0eee8" opacity=".15"/><circle cx="465" cy="75" r="1.5" fill="#f0eee8" opacity=".15"/><circle cx="15" cy="105" r="1.5" fill="#f0eee8" opacity=".15"/><circle cx="45" cy="105" r="1.5" fill="#f0eee8" opacity=".15"/><circle cx="75" cy="105" r="1.5" fill="#f0eee8" opacity=".15"/><circle cx="105" cy="105" r="1.5" fill="#f0eee8" opacity=".15"/><circle cx="135" cy="105" r="1.5" fill="#f0eee8" opacity=".15"/><circle cx="165" cy="105" r="1.5" fill="#f0eee8" opacity=".15"/><circle cx="195" cy="105" r="1.5" fill="#f0eee8" opacity=".15"/><circle cx="225" cy="105" r="1.5" fill="#f0eee8" opacity=".15"/><circle cx="255" cy="105" r="1.5" fill="#f0eee8" opacity=".15"/><circle cx="285" cy="105" r="1.5" fill="#f0eee8" opacity=".15"/><circle cx="315" cy="105" r="1.5" fill="#f0eee8" opacity=".15"/><circle cx="345" cy="105" r="1.5" fill="#f0eee8" opacity=".15"/><circle cx="375" cy="105" r="1.5" fill="#f0eee8" opacity=".15"/><circle cx="405" cy="105" r="1.5" fill="#f0eee8" opacity=".15"/><circle cx="435" cy="105" r="1.5" fill="#f0eee8" opacity=".15"/><circle cx="465" cy="105" r="1.5" fill="#f0eee8" opacity=".15"/><circle cx="15" cy="135" r="1.5" fill="#f0eee8" opacity=".15"/><circle cx="45" cy="135" r="1.5" fill="#f0eee8" opacity=".15"/><circle cx="75" cy="135" r="1.5" fill="#f0eee8" opacity=".15"/><circle cx="105" cy="135" r="1.5" fill="#f0eee8" opacity=".15"/><circle cx="135" cy="135" r="1.5" fill="#f0eee8" opacity=".15"/><circle cx="165" cy="135" r="1.5" fill="#f0eee8" opacity=".15"/><circle cx="195" cy="135" r="1.5" fill="#f0eee8" opacity=".15"/><circle cx="225" cy="135" r="1.5" fill="#f0eee8" opacity=".15"/><circle cx="255" cy="135" r="1.5" fill="#f0eee8" opacity=".15"/><circle cx="285" cy="135" r="1.5" fill="#f0eee8" opacity=".15"/><circle cx="315" cy="135" r="1.5" fill="#f0eee8" opacity=".15"/><circle cx="345" cy="135" r="1.5" fill="#f0eee8" opacity=".15"/><circle cx="375" cy="135" r="1.5" fill="#f0eee8" opacity=".15"/><circle cx="405" cy="135" r="1.5" fill="#f0eee8" opacity=".15"/><circle cx="435" cy="135" r="1.5" fill="#f0eee8" opacity=".15"/><circle cx="465" cy="135" r="1.5" fill="#f0eee8" opacity=".15"/><circle cx="15" cy="165" r="1.5" fill="#f0eee8" opacity=".15"/><circle cx="45" cy="165" r="1.5" fill="#f0eee8" opacity=".15"/><circle cx="75" cy="165" r="1.5" fill="#f0eee8" opacity=".15"/><circle cx="105" cy="165" r="1.5" fill="#f0eee8" opacity=".15"/><circle cx="135" cy="165" r="1.5" fill="#f0eee8" opacity=".15"/><circle cx="165" cy="165" r="1.5" fill="#f0eee8" opacity=".15"/><circle cx="195" cy="165" r="1.5" fill="#f0eee8" opacity=".15"/><circle cx="225" cy="165" r="1.5" fill="#f0eee8" opacity=".15"/><circle cx="255" cy="165" r="1.5" fill="#f0eee8" opacity=".15"/><circle cx="285" cy="165" r="1.5" fill="#f0eee8" opacity=".15"/><circle cx="315" cy="165" r="1.5" fill="#f0eee8" opacity=".15"/><circle cx="345" cy="165" r="1.5" fill="#f0eee8" opacity=".15"/><circle cx="375" cy="165" r="1.5" fill="#f0eee8" opacity=".15"/><circle cx="405" cy="165" r="1.5" fill="#f0eee8" opacity=".15"/><circle cx="435" cy="165" r="1.5" fill="#f0eee8" opacity=".15"/><circle cx="465" cy="165" r="1.5" fill="#f0eee8" opacity=".15"/><circle cx="15" cy="195" r="1.5" fill="#f0eee8" opacity=".15"/><circle cx="45" cy="195" r="1.5" fill="#f0eee8" opacity=".15"/><circle cx="75" cy="195" r="1.5" fill="#f0eee8" opacity=".15"/><circle cx="105" cy="195" r="1.5" fill="#f0eee8" opacity=".15"/><circle cx="135" cy="195" r="1.5" fill="#f0eee8" opacity=".15"/><circle cx="165" cy="195" r="1.5" fill="#f0eee8" opacity=".15"/><circle cx="195" cy="195" r="1.5" fill="#f0eee8" opacity=".15"/><circle cx="225" cy="195" r="1.5" fill="#f0eee8" opacity=".15"/><circle cx="255" cy="195" r="1.5" fill="#f0eee8" opacity=".15"/><circle cx="285" cy="195" r="1.5" fill="#f0eee8" opacity=".15"/><circle cx="315" cy="195" r="1.5" fill="#f0eee8" opacity=".15"/><circle cx="345" cy="195" r="1.5" fill="#f0eee8" opacity=".15"/><circle cx="375" cy="195" r="1.5" fill="#f0eee8" opacity=".15"/><circle cx="405" cy="195" r="1.5" fill="#f0eee8" opacity=".15"/><circle cx="435" cy="195" r="1.5" fill="#f0eee8" opacity=".15"/><circle cx="465" cy="195" r="1.5" fill="#f0eee8" opacity=".15"/><circle cx="15" cy="225" r="1.5" fill="#f0eee8" opacity=".15"/><circle cx="45" cy="225" r="1.5" fill="#f0eee8" opacity=".15"/><circle cx="75" cy="225" r="1.5" fill="#f0eee8" opacity=".15"/><circle cx="105" cy="225" r="1.5" fill="#f0eee8" opacity=".15"/><circle cx="135" cy="225" r="1.5" fill="#f0eee8" opacity=".15"/><circle cx="165" cy="225" r="1.5" fill="#f0eee8" opacity=".15"/><circle cx="195" cy="225" r="1.5" fill="#f0eee8" opacity=".15"/><circle cx="225" cy="225" r="1.5" fill="#f0eee8" opacity=".15"/><circle cx="255" cy="225" r="1.5" fill="#f0eee8" opacity=".15"/><circle cx="285" cy="225" r="1.5" fill="#f0eee8" opacity=".15"/><circle cx="315" cy="225" r="1.5" fill="#f0eee8" opacity=".15"/><circle cx="345" cy="225" r="1.5" fill="#f0eee8" opacity=".15"/><circle cx="375" cy="225" r="1.5" fill="#f0eee8" opacity=".15"/><circle cx="405" cy="225" r="1.5" fill="#f0eee8" opacity=".15"/><circle cx="435" cy="225" r="1.5" fill="#f0eee8" opacity=".15"/><circle cx="465" cy="225" r="1.5" fill="#f0eee8" opacity=".15"/><circle cx="15" cy="255" r="1.5" fill="#f0eee8" opacity=".15"/><circle cx="45" cy="255" r="1.5" fill="#f0eee8" opacity=".15"/><circle cx="75" cy="255" r="1.5" fill="#f0eee8" opacity=".15"/><circle cx="105" cy="255" r="1.5" fill="#f0eee8" opacity=".15"/><circle cx="135" cy="255" r="1.5" fill="#f0eee8" opacity=".15"/><circle cx="165" cy="255" r="1.5" fill="#f0eee8" opacity=".15"/><circle cx="195" cy="255" r="1.5" fill="#f0eee8" opacity=".15"/><circle cx="225" cy="255" r="1.5" fill="#f0eee8" opacity=".15"/><circle cx="255" cy="255" r="1.5" fill="#f0eee8" opacity=".15"/><circle cx="285" cy="255" r="1.5" fill="#f0eee8" opacity=".15"/><circle cx="315" cy="255" r="1.5" fill="#f0eee8" opacity=".15"/><circle cx="345" cy="255" r="1.5" fill="#f0eee8" opacity=".15"/><circle cx="375" cy="255" r="1.5" fill="#f0eee8" opacity=".15"/><circle cx="405" cy="255" r="1.5" fill="#f0eee8" opacity=".15"/><circle cx="435" cy="255" r="1.5" fill="#f0eee8" opacity=".15"/><circle cx="465" cy="255" r="1.5" fill="#f0eee8" opacity=".15"/><circle cx="15" cy="285" r="1.5" fill="#f0eee8" opacity=".15"/><circle cx="45" cy="285" r="1.5" fill="#f0eee8" opacity=".15"/><circle cx="75" cy="285" r="1.5" fill="#f0eee8" opacity=".15"/><circle cx="105" cy="285" r="1.5" fill="#f0eee8" opacity=".15"/><circle cx="135" cy="285" r="1.5" fill="#f0eee8" opacity=".15"/><circle cx="165" cy="285" r="1.5" fill="#f0eee8" opacity=".15"/><circle cx="195" cy="285" r="1.5" fill="#f0eee8" opacity=".15"/><circle cx="225" cy="285" r="1.5" fill="#f0eee8" opacity=".15"/><circle cx="255" cy="285" r="1.5" fill="#f0eee8" opacity=".15"/><circle cx="285" cy="285" r="1.5" fill="#f0eee8" opacity=".15"/><circle cx="315" cy="285" r="1.5" fill="#f0eee8" opacity=".15"/><circle cx="345" cy="285" r="1.5" fill="#f0eee8" opacity=".15"/><circle cx="375" cy="285" r="1.5" fill="#f0eee8" opacity=".15"/><circle cx="405" cy="285" r="1.5" fill="#f0eee8" opacity=".15"/><circle cx="435" cy="285" r="1.5" fill="#f0eee8" opacity=".15"/><circle cx="465" cy="285" r="1.5" fill="#f0eee8" opacity=".15"/>
</svg>