<svg xmlns="http://www.w3.org/2000/svg" viewBox="0 0 300 300" width="300" height="300">
  <path d="M150.0 50.0 L152.1 46.9 L154.2 43.8 L156.5 41.0 L158.9 38.5 L161.3 36.3 L163.8 34.5 L166.4 33.2 L168.9 32.4 L171.3 32.1 L173.7 32.4 L176.0 33.2 L178.1 34.5 L180.1 36.3 L181.8 38.6 L183.4 41.3 L184.8 44.3 L186.0 47.7 L187.0 51.2 L187.8 54.8 L188.4 58.5 L189.0 62.2 L189.4 65.8 L189.8 69.1 L190.2 72.3 L190.6 75.1 L191.1 77.6 L191.8 79.8 L192.6 81.5 L193.7 82.9 L195.0 83.8 L196.5 84.3 L198.4 84.5 L200.5 84.4 L203.0 84.0 L205.7 83.3 L208.7 82.5 L211.9 81.6 L215.3 80.7 L218.9 79.7 L222.5 78.9 L226.2 78.2 L229.9 77.7 L233.4 77.4 L236.8 77.5 L240.0 77.8 L242.9 78.5 L245.4 79.5 L247.5 80.9 L249.2 82.6 L250.5 84.6 L251.3 86.9 L251.6 89.5 L251.5 92.3 L250.9 95.2 L249.9 98.3 L248.6 101.5 L246.9 104.7 L245.0 107.8 L242.9 111.0 L240.7 114.0 L238.5 116.9 L236.3 119.6 L234.3 122.2 L232.5 124.6 L230.9 126.9 L229.7 128.9 L228.8 130.8 L228.4 132.6 L228.4 134.2 L228.9 135.7 L229.9 137.2 L231.3 138.6 L233.1 140.0 L235.3 141.5 L237.8 143.0 L240.7 144.6 L243.7 146.3 L246.8 148.1 L250.0 150.0" fill="none" stroke="#f0eee8" stroke-width="7" stroke-linecap="round" stroke-linejoin="round"/>
  <path d="M250.0 150.0 L252.0 152.0 L254.0 154.1 L255.9 156.3 L257.8 158.6 L259.6 160.9 L261.4 163.3 L263.1 165.8 L264.7 168.4 L266.3 171.0 L267.4 173.7 L264.9 175.5 L262.4 177.3 L259.9 179.1 L257.3 180.7 L254.8 182.2 L252.2 183.7 L249.6 185.0 L247.0 186.3 L244.4 187.4 L241.7 188.5 L239.1 189.5 L236.5 190.4 L233.8 191.2 L231.2 192.0 L228.6 192.6 L225.9 193.2 L223.3 193.6 L220.7 194.0 L218.1 194.3 L216.8 195.4 L217.6 197.9 L218.2 200.4 L218.8 203.0 L219.3 205.6 L219.8 208.3 L220.1 211.0 L220.4 213.7 L220.6 216.5 L220.7 219.3 L220.7 222.1 L220.7 225.0 L220.5 227.9 L220.3 230.8 L220.0 233.7 L219.5 236.7 L219.0 239.7 L218.4 242.6 L217.8 245.6 L217.0 248.6 L214.7 249.5 L211.7 249.1 L208.7 248.6 L205.7 247.9 L202.8 247.2 L199.9 246.5 L197.1 245.6 L194.3 244.7 L191.6 243.7 L188.9 242.7 L186.3 241.5 L183.8 240.3 L181.3 239.1 L178.9 237.8 L176.6 236.4 L174.3 235.0 L172.1 233.5 L169.9 231.9 L167.9 230.3 L165.9 228.7 L164.6 230.5 L163.3 232.7 L161.9 235.0 L160.5 237.2 L158.9 239.4 L157.3 241.6 L155.6 243.8 L153.8 245.9 L151.9 248.0 L150.0 250.0" fill="none" stroke="#f0eee8" stroke-width="7" stroke-linecap="round" stroke-linejoin="round"/>
  <path d="M150.0 270.0 L147.6 270.0 L145.2 269.9 L142.8 269.8 L140.5 269.6 L138.1 269.4 L135.7 269.1 L133.4 268.8 L131.0 268.5 L128.6 268.1 L126.3 267.6 L124.0 267.1 L121.6 266.6 L119.3 266.0 L117.0 265.4 L114.7 264.7 L112.5 264.0 L110.2 263.2 L108.0 262.4 L105.7 261.5 L119.0 223.8 L117.6 223.1 L116.1 222.5 L114.7 221.8 L113.3 221.1 L111.9 220.3 L110.5 219.5 L109.1 218.7 L107.7 217.9 L106.4 217.1 L105.1 216.2 L103.8 215.3 L102.5 214.3 L101.2 213.4 L99.9 212.4 L98.7 211.4 L97.5 210.4 L96.3 209.3 L95.1 208.2 L94.0 207.1 L64.3 234.0 L62.7 232.3 L61.0 230.5 L59.5 228.7 L57.9 226.9 L56.4 225.1 L54.9 223.2 L53.5 221.3 L52.1 219.4 L50.7 217.4 L49.4 215.4 L48.1 213.4 L46.9 211.4 L45.7 209.3 L44.5 207.2 L43.4 205.1 L42.3 203.0 L41.3 200.8 L40.3 198.7 L39.4 196.5 L75.6 179.5 L75.1 178.0 L74.5 176.5 L74.0 175.0 L73.5 173.5 L73.1 172.0 L72.7 170.4 L72.3 168.9 L71.9 167.4 L71.6 165.8 L71.3 164.2 L71.0 162.7 L70.8 161.1 L70.6 159.5 L70.4 157.9 L70.3 156.4 L70.1 154.8 L70.1 153.2 L70.0 151.6 L30.0 150.0" fill="none" stroke="#f0eee8" stroke-width="7" stroke-linecap="round" stroke-linejoin="round"/>
  <path d="M70.0 150.0 L69.0 148.4 L68.0 146.7 L67.1 145.0 L66.2 143.3 L65.4 141.6 L64.5 139.8 L63.8 137.9 L63.0 136.0 L62.3 134.1 L61.6 132.2 L61.0 130.2 L60.5 128.2 L59.9 126.2 L59.4 124.1 L59.0 122.0 L58.6 119.9 L58.3 117.8 L58.0 115.6 L57.8 113.4 L57.6 111.2 L57.4 108.9 L57.4 106.7 L57.3 104.4 L57.3 102.1 L57.4 99.8 L57.6 97.4 L57.8 95.1 L58.0 92.7 L58.3 90.4 L58.7 88.0 L59.1 85.6 L59.6 83.2 L60.1 80.8 L60.7 78.4 L61.4 76.0 L62.1 73.6 L62.9 71.2 L63.8 68.8 L64.7 66.3 L93.6 92.5 L94.1 90.7 L94.6 88.8 L95.2 87.0 L95.8 85.1 L96.5 83.3 L97.2 81.4 L98.0 79.5 L98.8 77.7 L99.7 75.9 L100.6 74.0 L101.6 72.2 L102.6 70.4 L103.7 68.6 L104.8 66.8 L106.0 65.0 L107.3 63.2 L108.6 61.5 L110.0 59.7 L111.4 58.0 L112.8 56.3 L114.3 54.7 L115.9 53.0 L117.5 51.4 L119.2 49.8 L120.9 48.3 L122.7 46.7 L124.5 45.2 L126.4 43.7 L128.3 42.3 L130.3 40.9 L132.3 39.5 L134.3 38.2 L136.4 36.9 L138.6 35.6 L140.8 34.4 L143.0 33.2 L145.3 32.1 L147.6 31.0 L150.0 70.0" fill="none" stroke="#f0eee8" stroke-width="7" stroke-linecap="round" stroke-linejoin="round"/>
</svg>