<svg xmlns="http://www.w3.org/2000/svg" viewBox="0 0 300 300" width="300" height="300">
  <path d="M40.0 67.5 L43.7 63.3 L47.5 59.3 L51.2 55.7 L54.9 52.6 L58.6 50.2 L62.4 48.5 L66.1 47.8 L69.8 47.9 L73.6 48.9 L77.3 50.7 L81.0 53.3 L84.7 56.6 L88.5 60.3 L92.2 64.4 L95.9 68.6 L99.7 72.7 L103.4 76.6 L107.1 80.1 L110.8 83.1 L114.6 85.3 L118.3 86.7 L122.0 87.3 L125.8 87.0 L129.5 85.7 L133.2 83.7 L136.9 80.9 L140.7 77.6 L144.4 73.7 L148.1 69.6 L151.9 65.4 L155.6 61.3 L159.3 57.4 L163.1 54.1 L166.8 51.3 L170.5 49.3 L174.2 48.0 L178.0 47.7 L181.7 48.3 L185.4 49.7 L189.2 51.9 L192.9 54.9 L196.6 58.4 L200.3 62.3 L204.1 66.4 L207.8 70.6 L211.5 74.7 L215.3 78.4 L219.0 81.7 L222.7 84.3 L226.4 86.1 L230.2 87.1 L233.9 87.2 L237.6 86.5 L241.4 84.8 L245.1 82.4 L248.8 79.3 L252.5 75.7 L256.3 71.7 L260.0 67.5" fill="none" stroke="#f0eee8" stroke-width="7" stroke-linecap="round" stroke-linejoin="round"/>
  <path d="M40.0 122.5 L67.5 102.7 L122.5 142.3 L177.5 102.7 L232.5 142.3 L260.0 122.5" fill="none" stroke="#f0eee8" stroke-width="7" stroke-linecap="round" stroke-linejoin="round"/>
  <path d="M40.0 157.7 L95.0 157.7 L95.0 197.3 L150.0 197.3 L150.0 157.7 L205.0 157.7 L205.0 197.3 L260.0 197.3" fill="none" stroke="#f0eee8" stroke-width="7" stroke-linecap="round" stroke-linejoin="round"/>
  <path d="M40.0 232.5 L150.0 212.7 L150.0 252.3 L260.0 212.7 L260.0 252.3" fill="none" stroke="#f0eee8" stroke-width="7" stroke-linecap="round" stroke-linejoin="round"/>
</svg>