<svg xmlns="http://www.w3.org/2000/svg" viewBox="0 0 300 300" width="300" height="300">
  <rect x="0" y="0" width="143" height="143" rx="14" fill="none" stroke="#f0eee8" stroke-width="1.5" opacity="0.25"/>
  <path d="M24.0 71.5 L25.9 63.1 L27.9 55.2 L29.8 48.4 L31.8 43.1 L33.7 39.6 L35.6 38.3 L37.6 39.1 L39.5 42.0 L41.4 46.9 L43.4 53.4 L45.3 61.0 L47.3 69.4 L49.2 77.9 L51.1 85.9 L53.1 93.1 L55.0 98.8 L57.0 102.7 L58.9 104.6 L60.8 104.3 L62.8 101.9 L64.7 97.5 L66.7 91.4 L68.6 84.0 L70.5 75.8 L72.5 67.2 L74.4 59.0 L76.3 51.6 L78.3 45.5 L80.2 41.1 L82.2 38.7 L84.1 38.4 L86.0 40.3 L88.0 44.2 L89.9 49.9 L91.9 57.1 L93.8 65.1 L95.7 73.6 L97.7 82.0 L99.6 89.6 L101.6 96.1 L103.5 101.0 L105.4 103.9 L107.4 104.7 L109.3 103.4 L111.2 99.9 L113.2 94.6 L115.1 87.8 L117.1 79.9 L119.0 71.5" fill="none" stroke="#f0eee8" stroke-width="7" stroke-linecap="round" stroke-linejoin="round"/>
  <rect x="157" y="0" width="143" height="143" rx="14" fill="none" stroke="#f0eee8" stroke-width="1.5" opacity="0.25"/>
  <path d="M181.0 71.5 L192.9 38.2 L216.6 104.8 L240.4 38.2 L264.1 104.8 L276.0 71.5" fill="none" stroke="#f0eee8" stroke-width="7" stroke-linecap="round" stroke-linejoin="round"/>
  <rect x="0" y="157" width="143" height="143" rx="14" fill="none" stroke="#f0eee8" stroke-width="1.5" opacity="0.25"/>
  <path d="M24.0 195.2 L47.8 195.2 L47.8 261.8 L71.5 261.8 L71.5 195.2 L95.2 195.2 L95.2 261.8 L119.0 261.8" fill="none" stroke="#f0eee8" stroke-width="7" stroke-linecap="round" stroke-linejoin="round"/>
  <rect x="157" y="157" width="143" height="143" rx="14" fill="none" stroke="#f0eee8" stroke-width="1.5" opacity="0.25"/>
  <path d="M181.0 228.5 L228.5 195.2 L228.5 261.8 L276.0 195.2 L276.0 261.8" fill="none" stroke="#f0eee8" stroke-width="7" stroke-linecap="round" stroke-linejoin="round"/>
</svg>